<?xml version="1.0" encoding="utf-8"?>
<!-- Generator: Adobe Illustrator 23.0.0, SVG Export Plug-In . SVG Version: 6.00 Build 0)  -->
<svg version="1.1" xmlns="http://www.w3.org/2000/svg" xmlns:xlink="http://www.w3.org/1999/xlink" x="0px" y="0px"
	 viewBox="0 0 526.1 375.7" style="enable-background:new 0 0 526.1 375.7;" xml:space="preserve">
<style type="text/css">
	.st0{display:none;}
	.st1{display:inline;stroke:#FFFFFF;stroke-miterlimit:10;}
	.st2{fill:#FFFFFF;}
	.st3{enable-background:new    ;}
</style>
<g id="Layer_2" class="st0">
	<rect x="-6" y="-14" class="st1" width="536" height="404"/>
</g>
<g id="Layer_1">
	<g id="Little">
		<g>
			<path class="st2" d="M146.1,150.1l61.9,108.4l-125.4,0.2L146.1,150.1 M146.2,134.6L69,266.5l152.4-0.3L146.2,134.6L146.2,134.6z"
				/>
		</g>
	</g>
	<g id="Medium">
		<g>
			<path class="st2" d="M302.2,58.5l115.4,200.3H184.4L302.2,58.5 M302.3,43L170.9,266.5h260.2L302.3,43L302.3,43z"/>
		</g>
	</g>
	<g id="Big">
		<g>
			<path class="st2" d="M222.4,19.5l137,239.2H82.5L222.4,19.5 M222.5,4L69,266.5h303.8L222.5,4L222.5,4z"/>
		</g>
	</g>
	<g id="Guides" class="st0">
	</g>
	<g class="st3">
		<path class="st2" d="M6.4,341.1V290h5v46.7H41v4.5H6.4z"/>
		<path class="st2" d="M87.3,341.5c-3.6,0-6.8-0.7-9.8-2.2c-3-1.5-5.5-3.4-7.6-5.8c-2.1-2.4-3.7-5.2-4.9-8.3
			c-1.2-3.1-1.7-6.3-1.7-9.6c0-3.4,0.6-6.7,1.8-9.8c1.2-3.1,2.9-5.9,5.1-8.3c2.2-2.4,4.7-4.3,7.6-5.7c2.9-1.4,6.1-2.1,9.5-2.1
			c3.6,0,6.8,0.8,9.8,2.3c3,1.5,5.5,3.5,7.6,5.9c2.1,2.4,3.7,5.2,4.9,8.3s1.7,6.3,1.7,9.5c0,3.4-0.6,6.7-1.8,9.8
			c-1.2,3.1-2.9,5.9-5,8.2c-2.1,2.4-4.7,4.3-7.6,5.7C93.9,340.8,90.7,341.5,87.3,341.5z M68.4,315.6c0,2.8,0.5,5.5,1.4,8
			c0.9,2.6,2.2,4.8,3.9,6.8c1.7,2,3.7,3.6,6,4.8c2.3,1.2,4.9,1.8,7.7,1.8c2.9,0,5.5-0.6,7.8-1.9c2.4-1.2,4.3-2.9,6-4.9
			c1.6-2,2.9-4.3,3.8-6.8c0.9-2.5,1.3-5.1,1.3-7.8c0-2.8-0.5-5.5-1.4-8c-0.9-2.6-2.2-4.8-3.9-6.8c-1.7-2-3.7-3.5-6-4.7
			c-2.3-1.2-4.8-1.8-7.6-1.8c-2.9,0-5.5,0.6-7.8,1.8c-2.4,1.2-4.3,2.8-6,4.9c-1.6,2-2.9,4.3-3.8,6.8
			C68.8,310.3,68.4,312.9,68.4,315.6z"/>
		<path class="st2" d="M142.4,341.1V290H164c2.2,0,4.2,0.5,6.1,1.4c1.8,0.9,3.4,2.2,4.8,3.7c1.3,1.5,2.4,3.2,3.1,5.1
			c0.7,1.9,1.1,3.9,1.1,5.8c0,1.9-0.3,3.7-0.8,5.4c-0.6,1.7-1.3,3.2-2.3,4.6c-1,1.4-2.2,2.5-3.6,3.5c-1.4,0.9-3,1.6-4.7,1.9
			l12.5,19.7h-5.7l-12-18.9h-15.1v18.9H142.4z M147.5,317.8h16.7c1.5,0,2.8-0.3,4.1-1c1.2-0.6,2.3-1.5,3.1-2.6
			c0.9-1.1,1.5-2.4,2-3.7c0.5-1.4,0.7-2.9,0.7-4.4c0-1.5-0.3-3-0.8-4.4c-0.6-1.4-1.3-2.7-2.2-3.7c-0.9-1.1-2-1.9-3.3-2.5
			c-1.3-0.6-2.6-0.9-4-0.9h-16.3V317.8z"/>
		<path class="st2" d="M226.1,290h4.2l21.2,51.1h-5.3l-6.6-16h-23l-6.6,16h-5.4L226.1,290z M238.5,321.2l-10.3-25.3l-10.4,25.3
			H238.5z"/>
		<path class="st2" d="M300.2,313.5v4h-8.9v9.7h-4.5v-9.7h-8.9v-4h8.9v-9.7h4.5v9.7H300.2z"/>
		<path class="st2" d="M368.3,294.5h-18.2v46.7h-5v-46.7h-18.2V290h41.5V294.5z"/>
		<path class="st2" d="M431.9,336.7v4.5h-34.3V290h33.7v4.5h-28.7v18.4h25v4.2h-25v19.5H431.9z"/>
		<path class="st2" d="M463,341.1V290h17.4c4.1,0,7.6,0.7,10.7,2c3,1.3,5.6,3.2,7.6,5.5s3.6,5,4.6,8.1c1,3.1,1.5,6.4,1.5,9.9
			c0,3.9-0.6,7.4-1.7,10.5c-1.2,3.1-2.8,5.8-4.9,8.1c-2.1,2.2-4.7,4-7.7,5.2s-6.4,1.8-10.1,1.8H463z M499.8,315.5
			c0-3.1-0.4-5.9-1.3-8.5c-0.9-2.6-2.1-4.8-3.8-6.7s-3.7-3.3-6.1-4.4c-2.4-1-5.2-1.5-8.3-1.5H468v42.2h12.3c3.2,0,6-0.5,8.4-1.6
			s4.5-2.6,6.1-4.5c1.6-1.9,2.9-4.1,3.7-6.7C499.3,321.3,499.8,318.5,499.8,315.5z"/>
	</g>
</g>
</svg>
