<?xml version="1.0" encoding="utf-8"?>
<!-- Generator: Adobe Illustrator 23.0.0, SVG Export Plug-In . SVG Version: 6.00 Build 0)  -->
<svg version="1.1" id="Peaks" xmlns="http://www.w3.org/2000/svg" xmlns:xlink="http://www.w3.org/1999/xlink" x="0px" y="0px"
	 viewBox="0 0 357.6 174.5" style="enable-background:new 0 0 357.6 174.5;" xml:space="preserve">
<style type="text/css">
	.st0{fill:url(#SVGID_1_);}
</style>
<linearGradient id="SVGID_1_" gradientUnits="userSpaceOnUse" x1="178.9543" y1="205.491" x2="178.1432" y2="-5.183">
	<stop  offset="0" style="stop-color:#F2D9B8"/>
	<stop  offset="0.388" style="stop-color:#E5D083"/>
	<stop  offset="0.5352" style="stop-color:#D0AF60"/>
	<stop  offset="0.7034" style="stop-color:#EEDFA4"/>
	<stop  offset="0.9123" style="stop-color:#DFC881"/>
</linearGradient>
<path class="st0" d="M0,140.4h3.8v30.1h18.9v3.5H0V140.4z M33.5,157.3L33.5,157.3c0-9.4,7-17.5,17.2-17.5c10.2,0,17.1,8,17.1,17.3
	v0.1c0,9.3-7,17.4-17.2,17.4C40.4,174.5,33.5,166.5,33.5,157.3z M63.8,157.3L63.8,157.3c0-7.7-5.6-14-13.2-14s-13.2,6.1-13.2,13.8
	v0.1c0,7.6,5.6,13.9,13.2,13.9S63.8,164.9,63.8,157.3z M83,140.4h14.4c4.1,0,7.4,1.2,9.6,3.4c1.6,1.6,2.6,4,2.6,6.6v0.1
	c0,5.6-3.8,8.8-9.1,9.8l10.3,13.7h-4.7l-9.7-13.1h-7.9h-1.7V174H83V140.4z M97.1,157.5c5,0,8.6-2.6,8.6-6.9v-0.1
	c0-4.1-3.2-6.6-8.6-6.6H86.8v13.6H97.1z M139.1,139l15.8,34.9h-3.8l-3.6-8.2h-16.9l-3.7,8.2h-3.6L139.1,139z M146.1,162.5l-7.1-15.8
	l-7.1,15.8H146.1z M200.1,158.8h-9.9v-3.5h9.9v-9.9h3.6v9.9h9.9v3.5h-9.9v9.9h-3.6V158.8z M259.3,143.9H248v-3.5h26.4v3.5h-11.3V174
	h-3.8V143.9z M288.7,140.4H313v3.5h-20.5v11.5h18.3v3.5h-18.3v11.8h20.7v3.5h-24.5V140.4z M328.1,140.4h11.7
	c10.6,0,17.9,7.2,17.9,16.7v0.1c0,9.5-7.3,16.8-17.9,16.8h-11.7V140.4z M331.9,143.9v26.6h7.9c8.5,0,13.9-5.8,13.9-13.2v-0.1
	c0-7.4-5.4-13.3-13.9-13.3H331.9z M129.2,69.5l29.4,51.5L99,121.1L129.2,69.5 M129.3,62.1l-36.7,62.7l72.5-0.1L129.3,62.1
	L129.3,62.1z M203.4,25.9l54.9,95.2H147.5L203.4,25.9 M203.5,18.5L141,124.8h123.7L203.5,18.5L203.5,18.5z M165.5,7.4l65.1,113.8H99
	L165.5,7.4 M165.5,0l-73,124.8H237L165.5,0L165.5,0z"/>
</svg>
