<?xml version="1.0" encoding="utf-8"?>
<!-- Generator: Adobe Illustrator 23.0.0, SVG Export Plug-In . SVG Version: 6.00 Build 0)  -->
<svg version="1.1" id="Layer_1" xmlns="http://www.w3.org/2000/svg" xmlns:xlink="http://www.w3.org/1999/xlink" x="0px" y="0px"
	 viewBox="0 0 150 88.8" style="enable-background:new 0 0 150 88.8;" xml:space="preserve">
<style type="text/css">
	.st0{fill:#FFFFFF;}
</style>
<g id="Layer_3">
</g>
<g id="Layer_2_1_">
	<path class="st0" d="M141.8,13.1H8.2c-4.5,0-8.2-2.3-8.2-5l0,0c0-2.8,3.7-5,8.2-5h133.7c4.5,0,8.2,2.3,8.2,5l0,0
		C150,10.9,146.3,13.1,141.8,13.1z"/>
	<path class="st0" d="M141.8,49.1H58.2c-4.5,0-8.2-2.3-8.2-5l0,0c0-2.7,3.7-5,8.2-5h83.7c4.5,0,8.2,2.3,8.2,5l0,0
		C150,46.8,146.3,49.1,141.8,49.1z"/>
	<path class="st0" d="M141.8,85.6H83.2c-4.5,0-8.2-2.3-8.2-5l0,0c0-2.7,3.7-5,8.2-5h58.7c4.5,0,8.2,2.3,8.2,5l0,0
		C150,83.3,146.3,85.6,141.8,85.6z"/>
</g>
</svg>
